<svg xmlns="http://www.w3.org/2000/svg" viewBox="0 0 1200 700" role="img" aria-label="Your studio is ready">
<rect width="1200" height="700" rx="28" fill="#f5f5f5"/>
<rect x="55" y="55" width="1090" height="590" rx="22" fill="#ffffff" stroke="#dedede"/>
<rect x="55" y="55" width="1090" height="72" rx="22" fill="#111111"/>
<circle cx="94" cy="91" r="12" fill="#ffffff"/><circle cx="130" cy="91" r="12" fill="#ffffff" opacity=".7"/><circle cx="166" cy="91" r="12" fill="#ffffff" opacity=".45"/>
<rect x="210" y="82" width="250" height="18" rx="9" fill="#ffffff" opacity=".9"/>
<rect x="105" y="170" width="360" height="34" rx="10" fill="#151515"/>
<rect x="105" y="226" width="520" height="16" rx="8" fill="#cfcfcf"/>
<rect x="105" y="260" width="440" height="16" rx="8" fill="#e2e2e2"/>
<rect x="105" y="320" width="990" height="190" rx="18" fill="#f0f0f0"/>
<rect x="135" y="350" width="250" height="22" rx="8" fill="#bdbdbd"/>
<rect x="135" y="395" width="520" height="14" rx="7" fill="#d1d1d1"/>
<rect x="135" y="430" width="420" height="14" rx="7" fill="#dcdcdc"/>
<rect x="850" y="350" width="190" height="62" rx="14" fill="#111111"/>
<text x="945" y="389" text-anchor="middle" font-family="Arial,sans-serif" font-size="20" fill="#fff">Your studio is ready</text>
<text x="105" y="570" font-family="Arial,sans-serif" font-size="22" fill="#777">Professional Studio · setup guide preview</text>
</svg>